<svg xmlns="http://www.w3.org/2000/svg" width="22" height="22" viewBox="0 0 22 22">
  <path fill="#FFFFFF" fill-rule="evenodd" d="M19.4083465,5.00382782 C20.3406703,4.41102123 21.0560545,3.47103857 21.3917943,2.35129279 C20.5188707,2.90156002 19.5542642,3.29950888 18.5250924,3.51495017 C17.7038211,2.58182869 16.5300229,2 15.2309679,2 C12.7387451,2 10.7191407,4.14755164 10.7191407,6.79596996 C10.7191407,7.17196302 10.7565886,7.53835043 10.834067,7.88827098 C7.08411105,7.68792431 3.75899513,5.78051423 1.53149029,2.87685974 C1.14280683,3.58767875 0.920702002,4.41102123 0.920702002,5.28925321 C0.920702002,6.95240503 1.71743852,8.42069912 2.92868463,9.28246425 C2.18876563,9.25776398 1.49275107,9.03957822 0.883254094,8.68279648 L0.883254094,8.74180269 C0.883254094,11.066373 2.43798791,13.0053445 4.50537066,13.4444605 C4.12572636,13.556984 3.72800376,13.6132457 3.31478547,13.6132457 C3.02424136,13.6132457 2.74015378,13.5844287 2.46639667,13.528167 C3.03973704,15.4328326 4.70681458,16.8215369 6.68251453,16.8585873 C5.13681986,18.1457461 3.19081998,18.9114546 1.07695017,18.9114546 C0.71280155,18.9114546 0.352526853,18.890871 0,18.8455872 C1.99765217,20.2054745 4.36978341,21 6.91882374,21 C15.2219287,21 19.7595821,13.6914632 19.7595821,7.35309837 C19.7595821,7.14451827 19.7569995,6.93731041 19.7479603,6.73284703 C20.6299231,6.05633396 21.3969596,5.21103568 22,4.24909721 C21.1903504,4.63057923 20.3200094,4.88855987 19.4083465,5.00382782 Z"/>
</svg>
